# xmcd
#
# Track frame offsets: 
#        150
#        25774
#        54550
#        73339
#        96758
#        110188
#        136977
#        150692
#        183482
#        196813
#        208123
#        221653
#        244632
#
# Disc length: 3658 seconds
#
# Revision: 0
# Processed by: cddbd v1.4PL0 Copyright (c) Steve Scherf et al.
# Submitted via: ExactAudioCopy v0.90b3
#
DISCID=c20e480d
DTITLE=Ron Thompson and The Resistors - Magic Touch
DYEAR=1998
DGENRE=Blues
TTITLE0=Saddle My Pony
TTITLE1=Cadillac Walk
TTITLE2=Magic Touch
TTITLE3=Ocean Of Tears
TTITLE4=Hard Time Train
TTITLE5=Funky Neighborhood
TTITLE6=Baby Please Don't Go
TTITLE7=Murderin' Blues
TTITLE8=Sunnyland
TTITLE9=RT's Piano
TTITLE10=Silvertone Boogie
TTITLE11=The Fast Floyd
TTITLE12=Little Drummer Boy
EXTD=
EXTT0=
EXTT1=
EXTT2=
EXTT3=
EXTT4=
EXTT5=
EXTT6=
EXTT7=
EXTT8=
EXTT9=
EXTT10=
EXTT11=
EXTT12=
PLAYORDER=
